<svg version="1" xmlns="http://www.w3.org/2000/svg" width="240" height="240" viewBox="0 0 180.000000 180.000000"><path d="M49.5 28.9c-5.1 1.3-9 3.8-13 8.2-6.4 7.1-11.8 21.7-10.9 29.6.4 3.6.6 8.5.5 9.9-.1.6-2.4 3.4-5.1 6.3-6.7 7-9.3 12.2-9.6 19.4-.8 19.6 14.7 36.1 42.3 45.2 13 4.2 22.9 5.5 40.3 5.1 15.5-.4 21.7-1.5 35.8-6.2 18.7-6.4 33.1-18.9 37.3-32.5 3.7-11.9 1.8-20.7-6.4-29.2-6.3-6.5-7.7-9.1-6.8-12.5 1.8-6.2-.3-18.1-4.5-26.5-5.8-11.4-13.9-17.1-24.4-17.1-6.7 0-9.1.9-15 5.4-5.1 3.9-13.6 6.7-20 6.5-6.8-.1-16.3-3.2-19.6-6.2-5.3-4.9-14.2-7.2-20.9-5.4z"/></svg>